<svg width="279" height="163" viewBox="0 0 279 163" fill="none" xmlns="http://www.w3.org/2000/svg">
<style>
@keyframes talk-insight-animation {
  0%   { transform: translateX(0); }
  10%  { transform: translateX(-3px); }
  20%  { transform: translateX(0); }
  30%  { transform: translateX(2px); }
  40%  { transform: translateX(0); }
  60%  { transform: translateX(-2px); }
  70%  { transform: translateX(0); }
  85%  { transform: translateX(3px); }
  100% { transform: translateX(0); }
}

@keyframes blink-animation {
  0%, 29%, 71%, 100% {
    opacity: 1;
  }
  30%, 70% {
    opacity: 0;
  }
}

@keyframes open-eyes-animation {
  0%, 29%, 71%, 100% {
    opacity: 0;
  }
  30%, 70% {
    opacity: 1;
  }
}

.talk-insight-face {
	animation: talk-insight-animation 8s ease-in-out infinite;
}

.blink {
	animation: talk-insight-animation 8s ease-in-out infinite, blink-animation 8s linear infinite;
}

.open-eyes {
	animation: talk-insight-animation 8s ease-in-out infinite, open-eyes-animation 8s linear infinite;
}
</style>
<path d="M107.605 155.086C90.174 155.086 76.0358 140.954 76.0358 123.517V97.4333C76.0358 80.0021 90.168 65.8638 107.605 65.8638H116.517L66 0V102.49L66.0302 102.478C66.0121 102.913 66 103.348 66 103.783V131.951C66 148.808 79.667 162.475 96.5242 162.475H162.521C172.363 162.475 181.112 157.811 186.695 150.579C181.946 153.437 176.381 155.086 170.436 155.086H107.605Z" fill="#93D4B5"/>
<path d="M187.451 43.1518L156.92 60.7763C151.144 64.1115 144.595 65.8637 137.93 65.8637H116.518L122.185 73.253H162.521C179.379 73.253 193.046 86.92 193.046 103.777V131.945C193.046 138.96 190.671 145.419 186.695 150.572C195.867 145.05 202 134.996 202 123.51V98.2246V51.5502C202 44.0823 193.916 39.4118 187.445 43.1458L187.451 43.1518Z" fill="#CF8F4A"/>
<path d="M193.045 103.777C193.045 86.9201 179.378 73.2531 162.521 73.2531H122.184L116.517 65.8638H107.605C90.1739 65.8638 76.0356 79.996 76.0356 97.4332V123.517C76.0356 140.948 90.1679 155.086 107.605 155.086H170.436C176.381 155.086 181.946 153.436 186.695 150.579C190.67 145.425 193.045 138.966 193.045 131.951V103.783V103.777Z" fill="#125358"/>
<path class="talk-insight-face" d="M134.444 120.835C137.537 120.835 140.045 118.327 140.045 115.234C140.045 112.14 137.537 109.633 134.444 109.633C131.35 109.633 128.843 112.14 128.843 115.234C128.843 118.327 131.35 120.835 134.444 120.835Z" fill="white"/>
<circle class="open-eyes" cx="106.5161" cy="112.754" r="9" fill="white"/>
<circle class="open-eyes" cx="161.5161" cy="112.754" r="9" fill="white"/>
<rect class="blink" x="89.5161" y="104.754" width="29.9297" height="12.827" rx="6.4135" fill="white"/>
<rect class="blink" x="149.375" y="104.754" width="29.9297" height="12.827" rx="6.4135" fill="white"/>
<rect x="20" y="76" width="25" height="64" rx="12.5" fill="#75DEAC" fill-opacity="0.54"/>
<rect y="125" width="14" height="33" rx="7" transform="rotate(-90 0 125)" fill="#75DEAC" fill-opacity="0.54"/>
<rect width="25" height="44" rx="12.5" transform="matrix(-1 0 0 1 241 96)" fill="#75DEAC" fill-opacity="0.54"/>
<rect width="14" height="33" rx="7" transform="matrix(4.37114e-08 -1 -1 -4.37114e-08 261 125)" fill="#75DEAC" fill-opacity="0.54"/>
<rect width="14" height="24" rx="7" transform="matrix(4.37114e-08 -1 -1 -4.37114e-08 279 140)" fill="#75DEAC" fill-opacity="0.54"/>
<rect width="14" height="24" rx="7" transform="matrix(4.37114e-08 -1 -1 -4.37114e-08 57 162)" fill="#75DEAC" fill-opacity="0.54"/>
</svg>
